<?xml version="1.0" encoding="utf-8"?>
<!-- Generator: Adobe Illustrator 24.0.1, SVG Export Plug-In . SVG Version: 6.00 Build 0)  -->
<svg version="1.1" id="Layer_1" xmlns="http://www.w3.org/2000/svg" xmlns:xlink="http://www.w3.org/1999/xlink" x="0px" y="0px"
	 viewBox="0 0 1366 768" style="enable-background:new 0 0 1366 768;" xml:space="preserve">
<style type="text/css">
	.st0{fill:#FFEAEA;}
</style>
<g>
	<path class="st0" d="M854.53,548.79c-1.77,0-3.55-0.14-5.31-0.43l-525.96-84.82c-8.73-1.41-16.4-6.13-21.58-13.31
		c-5.18-7.17-7.26-15.93-5.85-24.67l55.05-341.33c1.58-9.81,9.93-16.93,19.86-16.93c1.07,0,2.16,0.09,3.23,0.26l538.78,86.89
		c18.03,2.91,30.33,19.94,27.42,37.97l-52.98,328.51C884.59,537.08,870.85,548.79,854.53,548.79z"/>
	<path d="M370.73,66.81v1h0c1.05,0,2.11,0.09,3.15,0.25l538.78,86.89c8.6,1.39,16.15,6.04,21.25,13.11
		c5.1,7.06,7.15,15.69,5.76,24.29L886.7,520.86c-1.24,7.7-5.2,14.7-11.15,19.73c-5.89,4.97-13.35,7.71-21.01,7.71
		c-1.74,0-3.5-0.14-5.23-0.42l-525.96-84.82c-8.6-1.39-16.15-6.04-21.25-13.11c-5.1-7.06-7.15-15.69-5.76-24.29l55.05-341.33
		c1.54-9.57,9.69-16.51,19.36-16.51L370.73,66.81 M370.73,66.81c-9.95,0-18.71,7.22-20.35,17.36l-55.05,341.33
		c-2.96,18.33,9.51,35.59,27.84,38.54l525.96,84.82c1.81,0.29,3.61,0.43,5.39,0.43c16.21,0,30.49-11.76,33.15-28.27l52.98-328.51
		c2.96-18.33-9.51-35.59-27.84-38.54L374.04,67.07C372.93,66.89,371.83,66.81,370.73,66.81L370.73,66.81z"/>
</g>
</svg>
